<mxfile host="app.diagrams.net" modified="2023-05-23T04:10:04.745Z" agent="Mozilla/5.0 (Windows NT 10.0; Win64; x64) AppleWebKit/537.36 (KHTML, like Gecko) Chrome/113.0.0.0 Safari/537.36" etag="vIXpwyp8TjzREuV2vmD9" version="21.3.2" type="device">
  <diagram name="Trang-1" id="qEX7QCi1mX7akyGoLyg5">
    <mxGraphModel dx="1540" dy="966" grid="1" gridSize="10" guides="1" tooltips="1" connect="1" arrows="1" fold="1" page="1" pageScale="1" pageWidth="827" pageHeight="1169" math="0" shadow="0">
      <root>
        <mxCell id="0" />
        <mxCell id="1" parent="0" />
        <mxCell id="q0aWIV1tAMn-l_Ipa7h6-1" value="Config SIM" style="ellipse;whiteSpace=wrap;html=1;" vertex="1" parent="1">
          <mxGeometry x="160" y="40" width="120" height="50" as="geometry" />
        </mxCell>
        <mxCell id="q0aWIV1tAMn-l_Ipa7h6-2" value="State" style="rhombus;whiteSpace=wrap;html=1;" vertex="1" parent="1">
          <mxGeometry x="135" y="120" width="170" height="50" as="geometry" />
        </mxCell>
        <mxCell id="q0aWIV1tAMn-l_Ipa7h6-3" value="" style="edgeStyle=none;orthogonalLoop=1;jettySize=auto;html=1;rounded=0;entryX=0.5;entryY=0;entryDx=0;entryDy=0;exitX=0.5;exitY=1;exitDx=0;exitDy=0;" edge="1" parent="1" source="q0aWIV1tAMn-l_Ipa7h6-1" target="q0aWIV1tAMn-l_Ipa7h6-2">
          <mxGeometry width="100" relative="1" as="geometry">
            <mxPoint x="90" y="120" as="sourcePoint" />
            <mxPoint x="190" y="120" as="targetPoint" />
            <Array as="points" />
          </mxGeometry>
        </mxCell>
        <mxCell id="q0aWIV1tAMn-l_Ipa7h6-5" value="Hiển thị &quot;Setup Module Sim" style="rounded=1;whiteSpace=wrap;html=1;" vertex="1" parent="1">
          <mxGeometry x="360" y="127.5" width="160" height="35" as="geometry" />
        </mxCell>
        <mxCell id="q0aWIV1tAMn-l_Ipa7h6-6" value="Bật Module Sim" style="rounded=1;whiteSpace=wrap;html=1;" vertex="1" parent="1">
          <mxGeometry x="360" y="210" width="160" height="30" as="geometry" />
        </mxCell>
        <mxCell id="q0aWIV1tAMn-l_Ipa7h6-9" value="Cấu hình cho Module SIM" style="rounded=1;whiteSpace=wrap;html=1;" vertex="1" parent="1">
          <mxGeometry x="360" y="370" width="160" height="30" as="geometry" />
        </mxCell>
        <mxCell id="q0aWIV1tAMn-l_Ipa7h6-11" value="Cấu hình SMS SIM" style="rounded=1;whiteSpace=wrap;html=1;" vertex="1" parent="1">
          <mxGeometry x="360" y="540" width="160" height="30" as="geometry" />
        </mxCell>
        <mxCell id="q0aWIV1tAMn-l_Ipa7h6-12" value="Cấu hình TCP SIM" style="rounded=1;whiteSpace=wrap;html=1;" vertex="1" parent="1">
          <mxGeometry x="360" y="680" width="160" height="30" as="geometry" />
        </mxCell>
        <mxCell id="q0aWIV1tAMn-l_Ipa7h6-13" value="Trạng thái hoàn thành" style="rhombus;whiteSpace=wrap;html=1;" vertex="1" parent="1">
          <mxGeometry x="355" y="280" width="170" height="50" as="geometry" />
        </mxCell>
        <mxCell id="q0aWIV1tAMn-l_Ipa7h6-14" value="Trạng thái hoàn thành" style="rhombus;whiteSpace=wrap;html=1;" vertex="1" parent="1">
          <mxGeometry x="355" y="430" width="170" height="50" as="geometry" />
        </mxCell>
        <mxCell id="q0aWIV1tAMn-l_Ipa7h6-15" value="Trạng thái hoàn thành" style="rhombus;whiteSpace=wrap;html=1;" vertex="1" parent="1">
          <mxGeometry x="355" y="590" width="170" height="50" as="geometry" />
        </mxCell>
        <mxCell id="q0aWIV1tAMn-l_Ipa7h6-16" value="Trạng thái hoàn thành" style="rhombus;whiteSpace=wrap;html=1;" vertex="1" parent="1">
          <mxGeometry x="355" y="750" width="170" height="50" as="geometry" />
        </mxCell>
        <mxCell id="q0aWIV1tAMn-l_Ipa7h6-17" value="State = 0" style="rounded=1;whiteSpace=wrap;html=1;" vertex="1" parent="1">
          <mxGeometry x="580" y="745" width="120" height="60" as="geometry" />
        </mxCell>
        <mxCell id="q0aWIV1tAMn-l_Ipa7h6-18" value="Kết thúc" style="ellipse;whiteSpace=wrap;html=1;" vertex="1" parent="1">
          <mxGeometry x="230" y="820" width="120" height="50" as="geometry" />
        </mxCell>
        <mxCell id="q0aWIV1tAMn-l_Ipa7h6-19" value="" style="edgeStyle=segmentEdgeStyle;endArrow=classic;html=1;curved=0;rounded=0;endSize=8;startSize=8;sourcePerimeterSpacing=0;targetPerimeterSpacing=0;exitX=0.5;exitY=1;exitDx=0;exitDy=0;entryX=0;entryY=0.5;entryDx=0;entryDy=0;" edge="1" parent="1" source="q0aWIV1tAMn-l_Ipa7h6-2" target="q0aWIV1tAMn-l_Ipa7h6-12">
          <mxGeometry width="100" relative="1" as="geometry">
            <mxPoint x="220" y="320" as="sourcePoint" />
            <mxPoint x="320" y="360" as="targetPoint" />
            <Array as="points">
              <mxPoint x="220" y="695" />
            </Array>
          </mxGeometry>
        </mxCell>
        <mxCell id="q0aWIV1tAMn-l_Ipa7h6-20" value="" style="edgeStyle=none;orthogonalLoop=1;jettySize=auto;html=1;rounded=0;entryX=0;entryY=0.5;entryDx=0;entryDy=0;" edge="1" parent="1" target="q0aWIV1tAMn-l_Ipa7h6-11">
          <mxGeometry width="100" relative="1" as="geometry">
            <mxPoint x="220" y="554.33" as="sourcePoint" />
            <mxPoint x="320" y="554.33" as="targetPoint" />
            <Array as="points" />
          </mxGeometry>
        </mxCell>
        <mxCell id="q0aWIV1tAMn-l_Ipa7h6-21" value="" style="edgeStyle=none;orthogonalLoop=1;jettySize=auto;html=1;rounded=0;entryX=0;entryY=0.5;entryDx=0;entryDy=0;" edge="1" parent="1" target="q0aWIV1tAMn-l_Ipa7h6-9">
          <mxGeometry width="100" relative="1" as="geometry">
            <mxPoint x="220" y="384.33" as="sourcePoint" />
            <mxPoint x="320" y="384.33" as="targetPoint" />
            <Array as="points" />
          </mxGeometry>
        </mxCell>
        <mxCell id="q0aWIV1tAMn-l_Ipa7h6-22" value="" style="edgeStyle=none;orthogonalLoop=1;jettySize=auto;html=1;rounded=0;entryX=0;entryY=0.5;entryDx=0;entryDy=0;" edge="1" parent="1" target="q0aWIV1tAMn-l_Ipa7h6-6">
          <mxGeometry width="100" relative="1" as="geometry">
            <mxPoint x="220" y="224.32999999999998" as="sourcePoint" />
            <mxPoint x="320" y="224.32999999999998" as="targetPoint" />
            <Array as="points" />
          </mxGeometry>
        </mxCell>
        <mxCell id="q0aWIV1tAMn-l_Ipa7h6-23" value="" style="edgeStyle=none;orthogonalLoop=1;jettySize=auto;html=1;rounded=0;exitX=1;exitY=0.5;exitDx=0;exitDy=0;entryX=0;entryY=0.5;entryDx=0;entryDy=0;" edge="1" parent="1" source="q0aWIV1tAMn-l_Ipa7h6-2" target="q0aWIV1tAMn-l_Ipa7h6-5">
          <mxGeometry width="100" relative="1" as="geometry">
            <mxPoint x="290" y="30" as="sourcePoint" />
            <mxPoint x="390" y="30" as="targetPoint" />
            <Array as="points" />
          </mxGeometry>
        </mxCell>
        <mxCell id="q0aWIV1tAMn-l_Ipa7h6-24" value="0" style="text;html=1;align=center;verticalAlign=middle;resizable=0;points=[];autosize=1;strokeColor=none;fillColor=none;" vertex="1" parent="1">
          <mxGeometry x="305" y="98" width="30" height="30" as="geometry" />
        </mxCell>
        <mxCell id="q0aWIV1tAMn-l_Ipa7h6-25" value="1" style="text;html=1;align=center;verticalAlign=middle;resizable=0;points=[];autosize=1;strokeColor=none;fillColor=none;" vertex="1" parent="1">
          <mxGeometry x="265" y="188" width="30" height="30" as="geometry" />
        </mxCell>
        <mxCell id="q0aWIV1tAMn-l_Ipa7h6-26" value="2" style="text;html=1;align=center;verticalAlign=middle;resizable=0;points=[];autosize=1;strokeColor=none;fillColor=none;" vertex="1" parent="1">
          <mxGeometry x="265" y="350" width="30" height="30" as="geometry" />
        </mxCell>
        <mxCell id="q0aWIV1tAMn-l_Ipa7h6-27" value="3" style="text;html=1;align=center;verticalAlign=middle;resizable=0;points=[];autosize=1;strokeColor=none;fillColor=none;" vertex="1" parent="1">
          <mxGeometry x="265" y="518" width="30" height="30" as="geometry" />
        </mxCell>
        <mxCell id="q0aWIV1tAMn-l_Ipa7h6-28" value="4" style="text;html=1;align=center;verticalAlign=middle;resizable=0;points=[];autosize=1;strokeColor=none;fillColor=none;" vertex="1" parent="1">
          <mxGeometry x="265" y="660" width="30" height="30" as="geometry" />
        </mxCell>
        <mxCell id="q0aWIV1tAMn-l_Ipa7h6-30" value="" style="edgeStyle=none;orthogonalLoop=1;jettySize=auto;html=1;rounded=0;exitX=0.5;exitY=1;exitDx=0;exitDy=0;entryX=0.5;entryY=0;entryDx=0;entryDy=0;" edge="1" parent="1" source="q0aWIV1tAMn-l_Ipa7h6-5" target="q0aWIV1tAMn-l_Ipa7h6-6">
          <mxGeometry width="100" relative="1" as="geometry">
            <mxPoint x="380" y="180" as="sourcePoint" />
            <mxPoint x="480" y="180" as="targetPoint" />
            <Array as="points" />
          </mxGeometry>
        </mxCell>
        <mxCell id="q0aWIV1tAMn-l_Ipa7h6-31" value="" style="edgeStyle=none;orthogonalLoop=1;jettySize=auto;html=1;rounded=0;exitX=0.5;exitY=1;exitDx=0;exitDy=0;entryX=0.5;entryY=0;entryDx=0;entryDy=0;" edge="1" parent="1" source="q0aWIV1tAMn-l_Ipa7h6-6" target="q0aWIV1tAMn-l_Ipa7h6-13">
          <mxGeometry width="100" relative="1" as="geometry">
            <mxPoint x="440" y="280" as="sourcePoint" />
            <mxPoint x="540" y="280" as="targetPoint" />
            <Array as="points" />
          </mxGeometry>
        </mxCell>
        <mxCell id="q0aWIV1tAMn-l_Ipa7h6-32" value="" style="edgeStyle=none;orthogonalLoop=1;jettySize=auto;html=1;rounded=0;exitX=0.5;exitY=1;exitDx=0;exitDy=0;entryX=0.5;entryY=0;entryDx=0;entryDy=0;" edge="1" parent="1" source="q0aWIV1tAMn-l_Ipa7h6-13" target="q0aWIV1tAMn-l_Ipa7h6-9">
          <mxGeometry width="100" relative="1" as="geometry">
            <mxPoint x="460" y="350" as="sourcePoint" />
            <mxPoint x="560" y="350" as="targetPoint" />
            <Array as="points" />
          </mxGeometry>
        </mxCell>
        <mxCell id="q0aWIV1tAMn-l_Ipa7h6-33" value="" style="edgeStyle=none;orthogonalLoop=1;jettySize=auto;html=1;rounded=0;exitX=0.5;exitY=1;exitDx=0;exitDy=0;entryX=0.5;entryY=0;entryDx=0;entryDy=0;" edge="1" parent="1" source="q0aWIV1tAMn-l_Ipa7h6-9" target="q0aWIV1tAMn-l_Ipa7h6-14">
          <mxGeometry width="100" relative="1" as="geometry">
            <mxPoint x="470" y="420" as="sourcePoint" />
            <mxPoint x="570" y="420" as="targetPoint" />
            <Array as="points" />
          </mxGeometry>
        </mxCell>
        <mxCell id="q0aWIV1tAMn-l_Ipa7h6-34" value="" style="edgeStyle=none;orthogonalLoop=1;jettySize=auto;html=1;rounded=0;exitX=0.5;exitY=1;exitDx=0;exitDy=0;entryX=0.5;entryY=0;entryDx=0;entryDy=0;" edge="1" parent="1" source="q0aWIV1tAMn-l_Ipa7h6-14" target="q0aWIV1tAMn-l_Ipa7h6-11">
          <mxGeometry width="100" relative="1" as="geometry">
            <mxPoint x="420" y="520" as="sourcePoint" />
            <mxPoint x="520" y="520" as="targetPoint" />
            <Array as="points" />
          </mxGeometry>
        </mxCell>
        <mxCell id="q0aWIV1tAMn-l_Ipa7h6-35" value="" style="edgeStyle=none;orthogonalLoop=1;jettySize=auto;html=1;rounded=0;exitX=0.5;exitY=1;exitDx=0;exitDy=0;" edge="1" parent="1" source="q0aWIV1tAMn-l_Ipa7h6-11">
          <mxGeometry width="100" relative="1" as="geometry">
            <mxPoint x="470" y="660" as="sourcePoint" />
            <mxPoint x="440" y="590" as="targetPoint" />
            <Array as="points" />
          </mxGeometry>
        </mxCell>
        <mxCell id="q0aWIV1tAMn-l_Ipa7h6-37" value="" style="edgeStyle=none;orthogonalLoop=1;jettySize=auto;html=1;rounded=0;exitX=0.5;exitY=1;exitDx=0;exitDy=0;entryX=0.5;entryY=0;entryDx=0;entryDy=0;" edge="1" parent="1" source="q0aWIV1tAMn-l_Ipa7h6-15" target="q0aWIV1tAMn-l_Ipa7h6-12">
          <mxGeometry width="100" relative="1" as="geometry">
            <mxPoint x="450" y="650" as="sourcePoint" />
            <mxPoint x="550" y="650" as="targetPoint" />
            <Array as="points" />
          </mxGeometry>
        </mxCell>
        <mxCell id="q0aWIV1tAMn-l_Ipa7h6-38" value="" style="edgeStyle=none;orthogonalLoop=1;jettySize=auto;html=1;rounded=0;exitX=0.5;exitY=1;exitDx=0;exitDy=0;entryX=0.5;entryY=0;entryDx=0;entryDy=0;" edge="1" parent="1" source="q0aWIV1tAMn-l_Ipa7h6-12" target="q0aWIV1tAMn-l_Ipa7h6-16">
          <mxGeometry width="100" relative="1" as="geometry">
            <mxPoint x="480" y="740" as="sourcePoint" />
            <mxPoint x="580" y="740" as="targetPoint" />
            <Array as="points" />
          </mxGeometry>
        </mxCell>
        <mxCell id="q0aWIV1tAMn-l_Ipa7h6-41" value="" style="edgeStyle=segmentEdgeStyle;endArrow=classic;html=1;curved=0;rounded=0;endSize=8;startSize=8;sourcePerimeterSpacing=0;targetPerimeterSpacing=0;exitX=1;exitY=0.5;exitDx=0;exitDy=0;" edge="1" parent="1" source="q0aWIV1tAMn-l_Ipa7h6-13" target="q0aWIV1tAMn-l_Ipa7h6-17">
          <mxGeometry width="100" relative="1" as="geometry">
            <mxPoint x="570" y="350" as="sourcePoint" />
            <mxPoint x="670" y="390" as="targetPoint" />
            <Array as="points">
              <mxPoint x="640" y="305" />
            </Array>
          </mxGeometry>
        </mxCell>
        <mxCell id="q0aWIV1tAMn-l_Ipa7h6-42" value="" style="edgeStyle=none;orthogonalLoop=1;jettySize=auto;html=1;rounded=0;exitX=1;exitY=0.5;exitDx=0;exitDy=0;" edge="1" parent="1" source="q0aWIV1tAMn-l_Ipa7h6-14">
          <mxGeometry width="100" relative="1" as="geometry">
            <mxPoint x="530" y="520" as="sourcePoint" />
            <mxPoint x="640" y="455" as="targetPoint" />
            <Array as="points" />
          </mxGeometry>
        </mxCell>
        <mxCell id="q0aWIV1tAMn-l_Ipa7h6-44" value="" style="edgeStyle=none;orthogonalLoop=1;jettySize=auto;html=1;rounded=0;exitX=1;exitY=0.5;exitDx=0;exitDy=0;" edge="1" parent="1" source="q0aWIV1tAMn-l_Ipa7h6-15">
          <mxGeometry width="100" relative="1" as="geometry">
            <mxPoint x="520" y="640" as="sourcePoint" />
            <mxPoint x="640" y="615" as="targetPoint" />
            <Array as="points" />
          </mxGeometry>
        </mxCell>
        <mxCell id="q0aWIV1tAMn-l_Ipa7h6-45" value="" style="edgeStyle=none;orthogonalLoop=1;jettySize=auto;html=1;rounded=0;exitX=1;exitY=0.5;exitDx=0;exitDy=0;" edge="1" parent="1" source="q0aWIV1tAMn-l_Ipa7h6-12">
          <mxGeometry width="100" relative="1" as="geometry">
            <mxPoint x="510" y="710" as="sourcePoint" />
            <mxPoint x="640" y="695" as="targetPoint" />
            <Array as="points" />
          </mxGeometry>
        </mxCell>
        <mxCell id="q0aWIV1tAMn-l_Ipa7h6-46" value="" style="edgeStyle=segmentEdgeStyle;endArrow=classic;html=1;curved=0;rounded=0;endSize=8;startSize=8;sourcePerimeterSpacing=0;targetPerimeterSpacing=0;entryX=0.5;entryY=0;entryDx=0;entryDy=0;exitX=0;exitY=0.5;exitDx=0;exitDy=0;" edge="1" parent="1" source="q0aWIV1tAMn-l_Ipa7h6-13" target="q0aWIV1tAMn-l_Ipa7h6-18">
          <mxGeometry width="100" relative="1" as="geometry">
            <mxPoint x="260" y="330" as="sourcePoint" />
            <mxPoint x="360" y="370" as="targetPoint" />
            <Array as="points">
              <mxPoint x="290" y="305" />
            </Array>
          </mxGeometry>
        </mxCell>
        <mxCell id="q0aWIV1tAMn-l_Ipa7h6-47" value="" style="edgeStyle=none;orthogonalLoop=1;jettySize=auto;html=1;rounded=0;exitX=0;exitY=0.5;exitDx=0;exitDy=0;" edge="1" parent="1" source="q0aWIV1tAMn-l_Ipa7h6-14">
          <mxGeometry width="100" relative="1" as="geometry">
            <mxPoint x="280" y="510" as="sourcePoint" />
            <mxPoint x="290" y="455" as="targetPoint" />
            <Array as="points" />
          </mxGeometry>
        </mxCell>
        <mxCell id="q0aWIV1tAMn-l_Ipa7h6-48" value="" style="edgeStyle=none;orthogonalLoop=1;jettySize=auto;html=1;rounded=0;exitX=0;exitY=0.5;exitDx=0;exitDy=0;" edge="1" parent="1" source="q0aWIV1tAMn-l_Ipa7h6-15">
          <mxGeometry width="100" relative="1" as="geometry">
            <mxPoint x="280" y="620" as="sourcePoint" />
            <mxPoint x="290" y="615" as="targetPoint" />
            <Array as="points" />
          </mxGeometry>
        </mxCell>
        <mxCell id="q0aWIV1tAMn-l_Ipa7h6-49" value="" style="edgeStyle=none;orthogonalLoop=1;jettySize=auto;html=1;rounded=0;exitX=0;exitY=0.5;exitDx=0;exitDy=0;" edge="1" parent="1" source="q0aWIV1tAMn-l_Ipa7h6-16">
          <mxGeometry width="100" relative="1" as="geometry">
            <mxPoint x="280" y="760" as="sourcePoint" />
            <mxPoint x="290" y="775" as="targetPoint" />
            <Array as="points" />
          </mxGeometry>
        </mxCell>
        <mxCell id="q0aWIV1tAMn-l_Ipa7h6-50" value="" style="edgeStyle=none;orthogonalLoop=1;jettySize=auto;html=1;rounded=0;exitX=1;exitY=0.5;exitDx=0;exitDy=0;entryX=0;entryY=0.5;entryDx=0;entryDy=0;" edge="1" parent="1" source="q0aWIV1tAMn-l_Ipa7h6-16" target="q0aWIV1tAMn-l_Ipa7h6-17">
          <mxGeometry width="100" relative="1" as="geometry">
            <mxPoint x="480" y="840" as="sourcePoint" />
            <mxPoint x="580" y="840" as="targetPoint" />
            <Array as="points" />
          </mxGeometry>
        </mxCell>
        <mxCell id="q0aWIV1tAMn-l_Ipa7h6-51" value="" style="edgeStyle=segmentEdgeStyle;endArrow=classic;html=1;curved=0;rounded=0;endSize=8;startSize=8;sourcePerimeterSpacing=0;targetPerimeterSpacing=0;exitX=0.5;exitY=1;exitDx=0;exitDy=0;entryX=1;entryY=0.5;entryDx=0;entryDy=0;" edge="1" parent="1" source="q0aWIV1tAMn-l_Ipa7h6-17" target="q0aWIV1tAMn-l_Ipa7h6-18">
          <mxGeometry width="100" relative="1" as="geometry">
            <mxPoint x="570" y="820" as="sourcePoint" />
            <mxPoint x="670" y="860" as="targetPoint" />
            <Array as="points">
              <mxPoint x="640" y="845" />
            </Array>
          </mxGeometry>
        </mxCell>
        <mxCell id="q0aWIV1tAMn-l_Ipa7h6-52" value="chưa" style="text;html=1;align=center;verticalAlign=middle;resizable=0;points=[];autosize=1;strokeColor=none;fillColor=none;" vertex="1" parent="1">
          <mxGeometry x="305" y="270" width="50" height="30" as="geometry" />
        </mxCell>
        <mxCell id="q0aWIV1tAMn-l_Ipa7h6-53" value="chưa" style="text;html=1;align=center;verticalAlign=middle;resizable=0;points=[];autosize=1;strokeColor=none;fillColor=none;" vertex="1" parent="1">
          <mxGeometry x="305" y="418" width="50" height="30" as="geometry" />
        </mxCell>
        <mxCell id="q0aWIV1tAMn-l_Ipa7h6-55" value="chưa" style="text;html=1;align=center;verticalAlign=middle;resizable=0;points=[];autosize=1;strokeColor=none;fillColor=none;" vertex="1" parent="1">
          <mxGeometry x="305" y="585" width="50" height="30" as="geometry" />
        </mxCell>
        <mxCell id="q0aWIV1tAMn-l_Ipa7h6-57" value="chưa" style="text;html=1;align=center;verticalAlign=middle;resizable=0;points=[];autosize=1;strokeColor=none;fillColor=none;" vertex="1" parent="1">
          <mxGeometry x="305" y="748" width="50" height="30" as="geometry" />
        </mxCell>
        <mxCell id="q0aWIV1tAMn-l_Ipa7h6-58" value="lỗi" style="text;html=1;align=center;verticalAlign=middle;resizable=0;points=[];autosize=1;strokeColor=none;fillColor=none;" vertex="1" parent="1">
          <mxGeometry x="510" y="278" width="40" height="30" as="geometry" />
        </mxCell>
        <mxCell id="q0aWIV1tAMn-l_Ipa7h6-59" value="lỗi" style="text;html=1;align=center;verticalAlign=middle;resizable=0;points=[];autosize=1;strokeColor=none;fillColor=none;" vertex="1" parent="1">
          <mxGeometry x="520" y="418" width="40" height="30" as="geometry" />
        </mxCell>
        <mxCell id="q0aWIV1tAMn-l_Ipa7h6-60" value="lỗi" style="text;html=1;align=center;verticalAlign=middle;resizable=0;points=[];autosize=1;strokeColor=none;fillColor=none;" vertex="1" parent="1">
          <mxGeometry x="525" y="585" width="40" height="30" as="geometry" />
        </mxCell>
        <mxCell id="q0aWIV1tAMn-l_Ipa7h6-61" value="lỗi" style="text;html=1;align=center;verticalAlign=middle;resizable=0;points=[];autosize=1;strokeColor=none;fillColor=none;" vertex="1" parent="1">
          <mxGeometry x="525" y="748" width="40" height="30" as="geometry" />
        </mxCell>
        <mxCell id="q0aWIV1tAMn-l_Ipa7h6-62" value="xong, State =2" style="text;html=1;align=center;verticalAlign=middle;resizable=0;points=[];autosize=1;strokeColor=none;fillColor=none;" vertex="1" parent="1">
          <mxGeometry x="440" y="330" width="100" height="30" as="geometry" />
        </mxCell>
        <mxCell id="q0aWIV1tAMn-l_Ipa7h6-63" value="xong, State =3" style="text;html=1;align=center;verticalAlign=middle;resizable=0;points=[];autosize=1;strokeColor=none;fillColor=none;" vertex="1" parent="1">
          <mxGeometry x="440" y="500" width="100" height="30" as="geometry" />
        </mxCell>
        <mxCell id="q0aWIV1tAMn-l_Ipa7h6-64" value="xong, State =4" style="text;html=1;align=center;verticalAlign=middle;resizable=0;points=[];autosize=1;strokeColor=none;fillColor=none;" vertex="1" parent="1">
          <mxGeometry x="440" y="648" width="100" height="30" as="geometry" />
        </mxCell>
        <mxCell id="q0aWIV1tAMn-l_Ipa7h6-65" value="" style="edgeStyle=none;orthogonalLoop=1;jettySize=auto;html=1;rounded=0;exitX=0.5;exitY=1;exitDx=0;exitDy=0;" edge="1" parent="1" source="q0aWIV1tAMn-l_Ipa7h6-16">
          <mxGeometry width="100" relative="1" as="geometry">
            <mxPoint x="440" y="930" as="sourcePoint" />
            <mxPoint x="440" y="850" as="targetPoint" />
            <Array as="points" />
          </mxGeometry>
        </mxCell>
        <mxCell id="q0aWIV1tAMn-l_Ipa7h6-66" value="xong, State =0, check Config =1" style="text;html=1;align=center;verticalAlign=middle;resizable=0;points=[];autosize=1;strokeColor=none;fillColor=none;" vertex="1" parent="1">
          <mxGeometry x="430" y="805" width="190" height="30" as="geometry" />
        </mxCell>
      </root>
    </mxGraphModel>
  </diagram>
</mxfile>
